<?xml version="1.0" encoding="UTF-8" standalone="no"?>
<!-- Created with Inkscape (http://www.inkscape.org/) -->

<svg
   xmlns:dc="http://purl.org/dc/elements/1.1/"
   xmlns:cc="http://creativecommons.org/ns#"
   xmlns:rdf="http://www.w3.org/1999/02/22-rdf-syntax-ns#"
   xmlns:svg="http://www.w3.org/2000/svg"
   xmlns="http://www.w3.org/2000/svg"
   xmlns:sodipodi="http://sodipodi.sourceforge.net/DTD/sodipodi-0.dtd"
   xmlns:inkscape="http://www.inkscape.org/namespaces/inkscape"
   width="1024"
   height="1024"
   id="svg2983"
   version="1.1"
   inkscape:version="0.91pre2 r13516"
   sodipodi:docname="Apokee.svg">
  <title
     id="title3009">Apokee Logo</title>
  <defs
     id="defs2985" />
  <sodipodi:namedview
     id="base"
     pagecolor="#ffffff"
     bordercolor="#666666"
     borderopacity="1.0"
     inkscape:pageopacity="0.0"
     inkscape:pageshadow="2"
     inkscape:zoom="1.1835938"
     inkscape:cx="250.9307"
     inkscape:cy="512"
     inkscape:document-units="px"
     inkscape:current-layer="layer1"
     showgrid="false"
     inkscape:showpageshadow="false"
     inkscape:window-width="2560"
     inkscape:window-height="1377"
     inkscape:window-x="-5"
     inkscape:window-y="-5"
     inkscape:window-maximized="1" />
  <metadata
     id="metadata2988">
    <rdf:RDF>
      <cc:Work
         rdf:about="">
        <dc:format>image/svg+xml</dc:format>
        <dc:type
           rdf:resource="http://purl.org/dc/dcmitype/StillImage" />
        <dc:title>Apokee Logo</dc:title>
        <cc:license
           rdf:resource="https://creativecommons.org/licenses/by/4.0/" />
        <dc:date>2014</dc:date>
        <dc:creator>
          <cc:Agent>
            <dc:title>Dwayne Bent</dc:title>
          </cc:Agent>
        </dc:creator>
      </cc:Work>
      <cc:License
         rdf:about="https://creativecommons.org/licenses/by/4.0/">
        <cc:permits
           rdf:resource="http://creativecommons.org/ns#Reproduction" />
        <cc:permits
           rdf:resource="http://creativecommons.org/ns#Distribution" />
        <cc:requires
           rdf:resource="http://creativecommons.org/ns#Notice" />
        <cc:requires
           rdf:resource="http://creativecommons.org/ns#Attribution" />
        <cc:permits
           rdf:resource="http://creativecommons.org/ns#DerivativeWorks" />
      </cc:License>
    </rdf:RDF>
  </metadata>
  <g
     inkscape:label="Layer 1"
     inkscape:groupmode="layer"
     id="layer1"
     transform="translate(0,-28.362183)">
    <path
       style="fill:#000000;fill-opacity:1;stroke:none;stroke-width:100;marker-start:none"
       d="m 512.00031,101.45932 c -142.96282,0 -270.01748,68.22711 -350.14123,173.95537 19.87554,40.20247 43.33695,83.05334 71.8127,127.12126 16.99091,26.29508 35.78601,52.76221 56.20061,79.39509 C 374.63591,380.59344 468.76955,302.83586 558.83425,244.63805 616.39811,207.44182 672.03599,178.2295 722.53084,154.98406 659.98439,120.70864 588.35407,101.45932 512.00031,101.45932 z m 262.27088,86.97766 c -55.92358,24.01577 -120.40928,56.22 -187.33635,99.4668 -88.80764,57.38535 -181.87644,133.45376 -264.50159,234.17075 111.15631,132.45135 268.44069,260.14122 491.98152,336.31372 84.1003,-79.9488 136.4882,-192.76041 136.4882,-318.02611 0,-143.98133 -69.1185,-271.85434 -176.18564,-351.92516 -0.0981,-0.0727 -0.3463,0.0727 -0.44441,0 z M 129.29822,325.37117 c -35.77447,63.55041 -56.201189,136.83162 -56.201189,214.99097 0,74.33619 18.242759,144.25743 50.848639,205.62431 37.93881,-84.20121 83.45452,-157.97976 132.91972,-223.01981 -24.3208,-31.00733 -46.71851,-61.77918 -66.45957,-92.33021 -23.32463,-36.09589 -43.47835,-71.42571 -61.1076,-105.26526 z m 161.02032,238.63106 c -50.30727,67.82755 -95.90033,145.48772 -132.91972,235.06302 79.86807,109.2644 208.89198,180.19979 354.60149,180.19979 95.76527,0 184.3409,-30.51309 256.47218,-82.51779 C 555.61718,817.98505 401.37095,693.50775 290.31854,564.00223 z"
       id="path3982"
       inkscape:connector-curvature="0" />
  </g>
</svg>
