<?xml version="1.0" encoding="UTF-8" standalone="no"?>
<!-- Generator: Adobe Illustrator 16.0.4, SVG Export Plug-In . SVG Version: 6.00 Build 0)  -->

<svg
   xmlns:dc="http://purl.org/dc/elements/1.1/"
   xmlns:cc="http://creativecommons.org/ns#"
   xmlns:rdf="http://www.w3.org/1999/02/22-rdf-syntax-ns#"
   xmlns:svg="http://www.w3.org/2000/svg"
   xmlns="http://www.w3.org/2000/svg"
   xmlns:sodipodi="http://sodipodi.sourceforge.net/DTD/sodipodi-0.dtd"
   xmlns:inkscape="http://www.inkscape.org/namespaces/inkscape"
   version="1.1"
   id="Layer_1"
   x="0px"
   y="0px"
   width="1024"
   height="1024"
   viewBox="0 0 1024 1024"
   enable-background="new 0 0 24.014 24.014"
   xml:space="preserve"
   inkscape:version="0.91pre2 r13516"
   sodipodi:docname="Rocket.svg"><title
     id="title3334">Rocket</title><metadata
     id="metadata9"><rdf:RDF><cc:Work
         rdf:about=""><dc:format>image/svg+xml</dc:format><dc:type
           rdf:resource="http://purl.org/dc/dcmitype/StillImage" /><dc:title>Rocket</dc:title><dc:creator><cc:Agent><dc:title>Icons8</dc:title></cc:Agent></dc:creator><dc:publisher><cc:Agent><dc:title>Flaticon</dc:title></cc:Agent></dc:publisher><dc:source>http://www.flaticon.com/free-icon/rocket_48254</dc:source><cc:license
           rdf:resource="http://creativecommons.org/licenses/by/3.0/" /><dc:rights><cc:Agent><dc:title>http://creativecommons.org/licenses/by/3.0/</dc:title></cc:Agent></dc:rights><dc:description>Modified from original.</dc:description></cc:Work><cc:License
         rdf:about="http://creativecommons.org/licenses/by/3.0/"><cc:permits
           rdf:resource="http://creativecommons.org/ns#Reproduction" /><cc:permits
           rdf:resource="http://creativecommons.org/ns#Distribution" /><cc:requires
           rdf:resource="http://creativecommons.org/ns#Notice" /><cc:requires
           rdf:resource="http://creativecommons.org/ns#Attribution" /><cc:permits
           rdf:resource="http://creativecommons.org/ns#DerivativeWorks" /></cc:License></rdf:RDF></metadata><defs
     id="defs7" /><sodipodi:namedview
     pagecolor="#ffffff"
     bordercolor="#666666"
     borderopacity="1"
     objecttolerance="10"
     gridtolerance="10"
     guidetolerance="10"
     inkscape:pageopacity="0"
     inkscape:pageshadow="2"
     inkscape:window-width="2560"
     inkscape:window-height="1377"
     id="namedview5"
     showgrid="false"
     inkscape:zoom="1.1962891"
     inkscape:cx="226.95184"
     inkscape:cy="512"
     inkscape:window-x="-5"
     inkscape:window-y="-5"
     inkscape:window-maximized="1"
     inkscape:current-layer="Layer_1" /><path
     d="m 906.73464,117.26578 c 0,0 -118.55438,-3.32692 -237.04289,55.96845 -36.21487,16.46131 -75.72202,42.7994 -108.64463,75.72203 -53.2359,53.23415 -135.93751,151.24652 -201.05847,230.45834 l -144.62907,0 -65.84524,98.76787 111.67353,30.18831 c 0.2963,3.98537 1.38275,9.6134 4.44454,17.25146 l -17.31728,38.1244 c 0,0 -6.58454,13.16903 42.79941,65.84522 52.67618,52.71086 69.13749,46.09167 69.13749,46.09167 L 401.17486,757.084 c 6.1236,1.90604 10.69985,2.56449 13.66288,2.56449 l 31.01312,114.79945 98.76786,-65.84525 0,-149.07362 c 79.77151,-64.49368 177.65047,-145.51799 230.45835,-196.61389 32.92262,-32.92263 59.26071,-72.42976 78.98137,-108.64466 55.96845,-118.48677 52.6762,-237.00821 52.6762,-237.00821 z M 676.27629,413.56936 c -36.2478,0 -65.84524,-29.63035 -65.84524,-65.84524 0,-36.24953 29.59744,-65.84524 65.84524,-65.84524 36.21487,0 65.84522,29.59571 65.84522,65.84524 0,36.21489 -29.63035,65.84524 -65.84522,65.84524 z M 330.58875,808.6408 c 6.58453,3.29228 9.87679,6.58454 16.46132,9.87679 -6.58453,6.58453 -13.16905,16.46132 -19.7865,23.04584 -75.72202,75.722 -210.67185,65.84524 -210.67185,65.84524 0,0 -9.87679,-135.01739 65.84524,-210.70477 6.58453,-6.58452 16.46131,-13.13786 23.04583,-19.75358 3.29226,6.58454 6.5516,9.8768 9.87679,16.46132 -49.38394,62.51832 -42.7994,158.02858 -42.7994,158.02858 0,0 95.4756,6.58452 158.02857,-42.79942 z"
     id="path3"
     inkscape:connector-curvature="0" /></svg>