<?xml version="1.0" encoding="UTF-8" standalone="no"?>
<!-- Generator: Adobe Illustrator 16.0.0, SVG Export Plug-In . SVG Version: 6.00 Build 0)  -->

<svg
   xmlns:dc="http://purl.org/dc/elements/1.1/"
   xmlns:cc="http://creativecommons.org/ns#"
   xmlns:rdf="http://www.w3.org/1999/02/22-rdf-syntax-ns#"
   xmlns:svg="http://www.w3.org/2000/svg"
   xmlns="http://www.w3.org/2000/svg"
   xmlns:sodipodi="http://sodipodi.sourceforge.net/DTD/sodipodi-0.dtd"
   xmlns:inkscape="http://www.inkscape.org/namespaces/inkscape"
   version="1.1"
   id="Layer_4"
   x="0px"
   y="0px"
   width="1024"
   height="1024"
   viewBox="0 0 1024 1024"
   enable-background="new 0 0 100 100"
   xml:space="preserve"
   inkscape:version="0.91pre2 r13516"
   sodipodi:docname="Airplane.svg"><title
     id="title3335">Airplane filled shape</title><metadata
     id="metadata9"><rdf:RDF><cc:Work
         rdf:about=""><dc:format>image/svg+xml</dc:format><dc:type
           rdf:resource="http://purl.org/dc/dcmitype/StillImage" /><dc:title>Airplane filled shape</dc:title><dc:creator><cc:Agent><dc:title>Freepik</dc:title></cc:Agent></dc:creator><dc:source>http://www.flaticon.com/free-icon/airplane-filled-shape_59383</dc:source><dc:publisher><cc:Agent><dc:title>Flaticon</dc:title></cc:Agent></dc:publisher><cc:license
           rdf:resource="http://creativecommons.org/licenses/by/3.0/" /><dc:rights><cc:Agent><dc:title>http://creativecommons.org/licenses/by/3.0/</dc:title></cc:Agent></dc:rights></cc:Work><cc:License
         rdf:about="http://creativecommons.org/licenses/by/3.0/"><cc:permits
           rdf:resource="http://creativecommons.org/ns#Reproduction" /><cc:permits
           rdf:resource="http://creativecommons.org/ns#Distribution" /><cc:requires
           rdf:resource="http://creativecommons.org/ns#Notice" /><cc:requires
           rdf:resource="http://creativecommons.org/ns#Attribution" /><cc:permits
           rdf:resource="http://creativecommons.org/ns#DerivativeWorks" /></cc:License></rdf:RDF></metadata><defs
     id="defs7" /><sodipodi:namedview
     pagecolor="#ffffff"
     bordercolor="#666666"
     borderopacity="1"
     objecttolerance="10"
     gridtolerance="10"
     guidetolerance="10"
     inkscape:pageopacity="0"
     inkscape:pageshadow="2"
     inkscape:window-width="2560"
     inkscape:window-height="1377"
     id="namedview5"
     showgrid="false"
     inkscape:zoom="1.1962891"
     inkscape:cx="512"
     inkscape:cy="668.47493"
     inkscape:window-x="-5"
     inkscape:window-y="-5"
     inkscape:window-maximized="1"
     inkscape:current-layer="Layer_4" /><path
     d="M 735.44359,441.83411 C 818.07957,355.2758 1048.7375,102.20308 985.28187,38.706444 977.94037,31.364902 967.7957,27.637657 955.13539,27.637657 c -62.80869,0 -201.93862,97.380683 -372.99141,260.907113 L 190.30071,153.43986 c -8.08083,-2.76206 -17.27059,-0.63661 -23.30811,5.40091 L 47.443542,278.38983 c -5.164749,5.14421 -7.526364,12.50629 -6.335289,19.77596 1.232147,7.17725 5.873235,13.35852 12.383077,16.52104 l 343.769,167.90055 C 327.43867,560.88005 263.79827,637.84817 215.75482,702.07382 l -85.06948,-58.70154 c -8.75852,-6.01697 -21.234,-4.89778 -28.80144,2.63886 l -66.977453,66.97745 c -8.758511,8.78931 -8.758511,23.10275 0.02054,31.93314 l 93.335137,93.3454 c -9.99066,21.96302 -17.06524,46.31846 -2.96742,60.41627 3.61429,3.62457 10.23708,7.91654 21.24426,7.91654 10.03173,0 22.8974,-3.58349 39.15146,-10.91476 l 93.39675,93.3865 c 4.27144,4.25087 9.93931,6.59195 15.9563,6.59195 6.02725,0 11.69513,-2.35134 15.97684,-6.62283 l 66.97746,-66.96714 c 7.68038,-7.70092 8.77904,-19.80677 2.59777,-28.79117 l -58.69127,-85.05921 c 64.18459,-48.01266 141.1527,-111.65305 219.49672,-181.50551 l 167.89028,343.76899 c 3.19332,6.53037 9.38486,11.16124 16.64425,12.40365 1.22188,0.20529 2.42322,0.28747 3.63483,0.28747 5.96565,0 11.79782,-2.413 16.00765,-6.63309 L 865.13732,856.97522 c 6.05806,-6.04778 8.17324,-15.19647 5.39064,-23.32864 L 735.44359,441.83411 Z"
     id="path3"
     inkscape:connector-curvature="0" /></svg>