<?xml version="1.0" encoding="UTF-8" standalone="no"?>
<!-- Generator: Adobe Illustrator 16.0.0, SVG Export Plug-In . SVG Version: 6.00 Build 0)  -->

<svg
   xmlns:dc="http://purl.org/dc/elements/1.1/"
   xmlns:cc="http://creativecommons.org/ns#"
   xmlns:rdf="http://www.w3.org/1999/02/22-rdf-syntax-ns#"
   xmlns:svg="http://www.w3.org/2000/svg"
   xmlns="http://www.w3.org/2000/svg"
   xmlns:sodipodi="http://sodipodi.sourceforge.net/DTD/sodipodi-0.dtd"
   xmlns:inkscape="http://www.inkscape.org/namespaces/inkscape"
   version="1.1"
   id="Layer_4"
   x="0px"
   y="0px"
   width="1024"
   height="1024"
   viewBox="0 0 1024 1024"
   enable-background="new 0 0 100 100"
   xml:space="preserve"
   inkscape:version="0.91pre2 r13516"
   sodipodi:docname="Airplane.svg"><title
     id="title3335">Airplane filled shape</title><metadata
     id="metadata9"><rdf:RDF><cc:Work
         rdf:about=""><dc:format>image/svg+xml</dc:format><dc:type
           rdf:resource="http://purl.org/dc/dcmitype/StillImage" /><dc:title>Airplane filled shape</dc:title><dc:creator><cc:Agent><dc:title>Freepik</dc:title></cc:Agent></dc:creator><dc:source>http://www.flaticon.com/free-icon/airplane-filled-shape_59383</dc:source><dc:publisher><cc:Agent><dc:title>Flaticon</dc:title></cc:Agent></dc:publisher><cc:license
           rdf:resource="http://creativecommons.org/licenses/by/3.0/" /><dc:rights><cc:Agent><dc:title>http://creativecommons.org/licenses/by/3.0/</dc:title></cc:Agent></dc:rights></cc:Work><cc:License
         rdf:about="http://creativecommons.org/licenses/by/3.0/"><cc:permits
           rdf:resource="http://creativecommons.org/ns#Reproduction" /><cc:permits
           rdf:resource="http://creativecommons.org/ns#Distribution" /><cc:requires
           rdf:resource="http://creativecommons.org/ns#Notice" /><cc:requires
           rdf:resource="http://creativecommons.org/ns#Attribution" /><cc:permits
           rdf:resource="http://creativecommons.org/ns#DerivativeWorks" /></cc:License></rdf:RDF></metadata><defs
     id="defs7" /><sodipodi:namedview
     pagecolor="#ffffff"
     bordercolor="#666666"
     borderopacity="1"
     objecttolerance="10"
     gridtolerance="10"
     guidetolerance="10"
     inkscape:pageopacity="0"
     inkscape:pageshadow="2"
     inkscape:window-width="2560"
     inkscape:window-height="1377"
     id="namedview5"
     showgrid="false"
     inkscape:zoom="0.84590414"
     inkscape:cx="-252.47222"
     inkscape:cy="412.544"
     inkscape:window-x="-5"
     inkscape:window-y="-5"
     inkscape:window-maximized="1"
     inkscape:current-layer="Layer_4" /><path
     d="m 694.045,454.78465 c 67.30753,-70.5023 255.17986,-276.63161 203.49485,-328.35001 -5.9797,-5.97973 -14.2426,-9.0156 -24.5545,-9.0156 -51.15807,0 -164.48027,79.31717 -303.80385,212.51047 L 250.02271,219.88572 c -6.58188,-2.24972 -14.06699,-0.51852 -18.9846,4.39908 l -97.37345,97.37345 c -4.20672,4.18999 -6.13027,10.18646 -5.16013,16.10764 1.00359,5.84592 4.78378,10.88061 10.08609,13.45649 l 280.002,136.75606 C 361.72244,551.7483 309.88694,614.43932 270.75525,666.75151 l -69.28962,-47.81277 c -7.13388,-4.90085 -17.29522,-3.98927 -23.45896,2.14937 l -54.55355,54.55355 c -7.13386,7.15896 -7.13386,18.81734 0.0167,26.00974 l 76.02205,76.03042 c -8.13745,17.889 -13.89974,37.72666 -2.41698,49.20942 2.94387,2.95224 8.33817,6.44808 17.30359,6.44808 8.17091,0 18.65007,-2.91878 31.88911,-8.89015 l 76.07223,76.0639 c 3.47912,3.46235 8.09563,5.36917 12.9965,5.36917 4.90923,0 9.52577,-1.91517 13.01325,-5.39433 l 54.55356,-54.54515 c 6.25571,-6.27244 7.15057,-16.13274 2.11589,-23.45059 L 357.21463,753.21091 C 409.49339,714.10429 472.18439,662.2688 535.99609,605.37354 l 136.74768,280.00198 c 2.60098,5.31904 7.64403,9.09091 13.55685,10.10286 0.99523,0.16721 1.97373,0.23415 2.96059,0.23415 4.85907,0 9.6094,-1.96541 13.03833,-5.4027 l 97.38181,-97.39016 c 4.93433,-4.92596 6.65716,-12.37762 4.39072,-19.00133 L 694.045,454.78465 Z"
     id="path3"
     inkscape:connector-curvature="0" /></svg>