<?xml version="1.0" encoding="UTF-8" standalone="no"?>
<!-- Generator: Adobe Illustrator 16.0.4, SVG Export Plug-In . SVG Version: 6.00 Build 0)  -->

<svg
   xmlns:dc="http://purl.org/dc/elements/1.1/"
   xmlns:cc="http://creativecommons.org/ns#"
   xmlns:rdf="http://www.w3.org/1999/02/22-rdf-syntax-ns#"
   xmlns:svg="http://www.w3.org/2000/svg"
   xmlns="http://www.w3.org/2000/svg"
   xmlns:sodipodi="http://sodipodi.sourceforge.net/DTD/sodipodi-0.dtd"
   xmlns:inkscape="http://www.inkscape.org/namespaces/inkscape"
   version="1.1"
   id="Layer_1"
   x="0px"
   y="0px"
   width="1024"
   height="1024"
   viewBox="0 0 1024 1024"
   enable-background="new 0 0 24.014 24.014"
   xml:space="preserve"
   inkscape:version="0.91pre2 r13516"
   sodipodi:docname="Rocket.svg"><title
     id="title3334">Rocket</title><metadata
     id="metadata9"><rdf:RDF><cc:Work
         rdf:about=""><dc:format>image/svg+xml</dc:format><dc:type
           rdf:resource="http://purl.org/dc/dcmitype/StillImage" /><dc:title>Rocket</dc:title><dc:creator><cc:Agent><dc:title>Icons8</dc:title></cc:Agent></dc:creator><dc:publisher><cc:Agent><dc:title>Flaticon</dc:title></cc:Agent></dc:publisher><dc:source>http://www.flaticon.com/free-icon/rocket_48254</dc:source><cc:license
           rdf:resource="http://creativecommons.org/licenses/by/3.0/" /><dc:rights><cc:Agent><dc:title>http://creativecommons.org/licenses/by/3.0/</dc:title></cc:Agent></dc:rights><dc:description>Modified from original.</dc:description></cc:Work><cc:License
         rdf:about="http://creativecommons.org/licenses/by/3.0/"><cc:permits
           rdf:resource="http://creativecommons.org/ns#Reproduction" /><cc:permits
           rdf:resource="http://creativecommons.org/ns#Distribution" /><cc:requires
           rdf:resource="http://creativecommons.org/ns#Notice" /><cc:requires
           rdf:resource="http://creativecommons.org/ns#Attribution" /><cc:permits
           rdf:resource="http://creativecommons.org/ns#DerivativeWorks" /></cc:License></rdf:RDF></metadata><defs
     id="defs7" /><sodipodi:namedview
     pagecolor="#ffffff"
     bordercolor="#666666"
     borderopacity="1"
     objecttolerance="10"
     gridtolerance="10"
     guidetolerance="10"
     inkscape:pageopacity="0"
     inkscape:pageshadow="2"
     inkscape:window-width="2560"
     inkscape:window-height="1377"
     id="namedview5"
     showgrid="false"
     inkscape:zoom="1.1962891"
     inkscape:cx="512"
     inkscape:cy="512"
     inkscape:window-x="-5"
     inkscape:window-y="-5"
     inkscape:window-maximized="1"
     inkscape:current-layer="Layer_1" /><path
     d="m 996.75128,27.248843 c 0,0 -145.55367,-4.084582 -291.02648,68.71458 -44.46237,20.210167 -92.96678,52.546437 -133.38712,92.966787 -65.3597,65.35756 -166.8956,185.69104 -246.84704,282.94239 l -177.56656,0 -80.840681,121.26102 137.105801,37.06333 c 0.36378,4.89299 1.69765,11.80273 5.45674,21.18026 l -21.2611,46.80676 c 0,0 -8.08407,16.16813 52.54645,80.84067 64.67254,64.7151 84.88271,56.58848 84.88271,56.58848 l 50.24249,-22.83536 c 7.51818,2.34012 13.13661,3.14853 16.77444,3.14853 l 38.07597,140.9436 121.26103,-80.84068 0,-183.0233 C 650.10642,613.82458 770.27609,514.34799 835.11032,451.61563 875.53066,411.19528 907.86693,362.69088 932.07872,318.2285 1000.7933,172.75782 996.75128,27.244588 996.75128,27.244588 Z M 713.80888,391.03191 c -44.5028,0 -80.84069,-36.3783 -80.84069,-80.84067 0,-44.50493 36.33789,-80.84069 80.84069,-80.84069 44.46237,0 80.84067,36.33576 80.84067,80.84069 0,44.46237 -36.3783,80.84067 -80.84067,80.84067 z m -424.41361,485.0441 c 8.08408,4.04204 12.12611,8.08407 20.21018,12.1261 -8.08407,8.08407 -16.16814,20.21018 -24.29263,28.29424 -92.96678,92.96675 -258.649765,80.84068 -258.649765,80.84068 0,0 -12.126103,-165.76594 80.840685,-258.69018 8.08407,-8.08407 20.21017,-16.12984 28.29424,-24.25221 4.04203,8.08408 8.04364,12.12611 12.1261,20.21018 -60.63051,76.7561 -52.546443,194.01764 -52.546443,194.01764 0,0 117.218993,8.08407 194.017633,-52.54645 z"
     id="path3"
     inkscape:connector-curvature="0" /></svg>